<?xml version="1.0" encoding="UTF-8" standalone="no"?>
<svg
   xmlns:dc="http://purl.org/dc/elements/1.1/"
   xmlns:cc="http://creativecommons.org/ns#"
   xmlns:rdf="http://www.w3.org/1999/02/22-rdf-syntax-ns#"
   xmlns:svg="http://www.w3.org/2000/svg"
   xmlns="http://www.w3.org/2000/svg"
   xmlns:sodipodi="http://sodipodi.sourceforge.net/DTD/sodipodi-0.dtd"
   xmlns:inkscape="http://www.inkscape.org/namespaces/inkscape"
   viewBox="0 0 562 562"
   version="1.1"
   id="svg1139"
   sodipodi:docname="favicon.svg"
   inkscape:version="0.92.3 (2405546, 2018-03-11)"
   width="562"
   height="562"
   inkscape:export-filename="/home/hjacobs/workspace/kube-resource-report/templates/favicon.png"
   inkscape:export-xdpi="12"
   inkscape:export-ydpi="12">
  <metadata
     id="metadata1145">
    <rdf:RDF>
      <cc:Work
         rdf:about="">
        <dc:format>image/svg+xml</dc:format>
        <dc:type
           rdf:resource="http://purl.org/dc/dcmitype/StillImage" />
        <dc:title></dc:title>
      </cc:Work>
    </rdf:RDF>
  </metadata>
  <defs
     id="defs1143" />
  <sodipodi:namedview
     pagecolor="#ffffff"
     bordercolor="#666666"
     borderopacity="1"
     objecttolerance="10"
     gridtolerance="10"
     guidetolerance="10"
     inkscape:pageopacity="0"
     inkscape:pageshadow="2"
     inkscape:window-width="1920"
     inkscape:window-height="1031"
     id="namedview1141"
     showgrid="false"
     inkscape:zoom="0.081483008"
     inkscape:cx="83.296141"
     inkscape:cy="263.64407"
     inkscape:window-x="0"
     inkscape:window-y="25"
     inkscape:window-maximized="1"
     inkscape:current-layer="svg1139"
     fit-margin-top="0"
     fit-margin-left="0"
     fit-margin-right="0"
     fit-margin-bottom="0" />
  <path
     inkscape:connector-curvature="0"
     id="path3059"
     d="m 280.98374,11.90348 c -8.63608,8.74e-4 -15.63838,7.779529 -15.63732,17.374788 0,0.147326 0.03,0.287989 0.0331,0.434369 -0.0127,1.303764 -0.0758,2.874441 -0.0331,4.009575 0.20595,5.534273 1.41232,9.769966 2.13844,14.868803 1.31535,10.913151 2.41762,19.95948 1.73749,28.36769 -0.66153,3.170666 -2.99692,6.070402 -5.07879,8.085975 l -0.36759,6.615783 c -9.38433,0.777518 -18.83141,2.201237 -28.26745,4.343701 -40.60315,9.218986 -75.56174,30.133856 -102.17718,58.372616 -1.727,-1.17819 -4.74842,-3.34572 -5.64686,-4.00955 -2.7919,0.37703 -5.61361,1.23847 -9.28884,-0.90216 -6.99793,-4.71059 -13.3715,-11.21282 -21.083623,-19.04546 -3.533759,-3.74675 -6.092767,-7.31451 -10.291242,-10.92605 -0.953444,-0.82017 -2.408489,-1.92946 -3.474947,-2.77329 -3.282374,-2.61698 -7.153834,-3.98181 -10.892666,-4.10982 -4.807089,-0.16459 -9.434715,1.71488 -12.463075,5.51316 -5.383741,6.75252 -3.660056,17.07332 3.842494,23.05502 0.07606,0.0605 0.157303,0.10784 0.233905,0.1671 1.030954,0.83572 2.293425,1.90655 3.241061,2.60622 4.455291,3.28951 8.525096,4.97342 12.964264,7.58476 9.352452,5.77574 17.105756,10.5648 23.255489,16.339 2.4015,2.55988 2.82122,7.07065 3.14084,9.02152 l 5.01197,4.47736 C 85.049755,221.7522 72.632463,271.62672 79.970674,322.44455 l -6.548962,1.90455 c -1.726037,2.2289 -4.165041,5.73607 -6.716081,6.78285 -8.045995,2.53428 -17.101319,3.4649 -28.033568,4.61101 -5.132575,0.42677 -9.561127,0.17209 -15.002463,1.20286 -1.197606,0.22686 -2.866264,0.66161 -4.176621,0.96898 -0.04561,0.008 -0.08819,0.0232 -0.133606,0.0332 -0.07144,0.0159 -0.165319,0.0513 -0.233886,0.0669 -9.2168122,2.22695 -15.1377114,10.69858 -13.2315885,19.04544 1.9066024,8.34881 10.9093925,13.42593 20.1815005,11.42727 0.06698,-0.016 0.164071,-0.0178 0.233886,-0.0332 0.104749,-0.0238 0.19683,-0.0748 0.300723,-0.10011 1.292526,-0.28375 2.912299,-0.59941 4.042978,-0.90216 5.349662,-1.43238 9.22408,-3.53696 14.033485,-5.3795 10.34676,-3.71102 18.916319,-6.81116 27.265071,-8.01915 3.48692,-0.2731 7.160675,2.15144 8.988113,3.17424 l 6.816266,-1.16945 c 15.685629,48.63106 48.557639,87.93787 90.181869,112.60203 l -2.84011,6.81627 c 1.0237,2.64675 2.15276,6.22787 1.39022,8.8417 -3.03517,7.87075 -8.23401,16.17831 -14.154,25.4401 -2.86642,4.27892 -5.80002,7.59958 -8.38668,12.4965 -0.61898,1.17175 -1.40729,2.97169 -2.00478,4.21002 -4.01903,8.59904 -1.07099,18.50306 6.64919,22.21972 7.76867,3.73997 17.41165,-0.20459 21.58485,-8.82106 0.007,-0.0127 0.0274,-0.0212 0.0332,-0.0332 0.003,-0.008 -0.003,-0.0241 0,-0.0332 0.59437,-1.22162 1.4365,-2.82738 1.93793,-3.97615 2.21557,-5.0756 2.95276,-9.42523 4.51079,-14.3342 4.13745,-10.39295 6.41065,-21.29779 12.10629,-28.09276 1.55966,-1.86068 4.10238,-2.57628 6.73865,-3.28211 l 3.54178,-6.41531 c 36.28735,13.9285 76.90536,17.66612 117.48036,8.45351 9.25622,-2.10163 18.1921,-4.82157 26.83073,-8.08597 0.99536,1.76563 2.84532,5.15974 3.34131,6.01436 2.67894,0.87161 5.60313,1.32169 7.98569,4.84489 4.26125,7.28029 7.17541,15.89304 10.72563,26.29609 1.55817,4.9089 2.32834,9.25871 4.54418,14.33419 0.50498,1.15686 1.34294,2.78519 1.93796,4.00957 4.1644,8.64447 13.83793,12.60254 21.61819,8.85447 7.71925,-3.71863 10.6705,-13.62175 6.64925,-22.21969 -0.59757,-1.2383 -1.41916,-3.03833 -2.03824,-4.21004 -2.58697,-4.89677 -5.52007,-8.18431 -8.38662,-12.46308 -5.92058,-9.2615 -10.83086,-16.95534 -13.86647,-24.82591 -1.26928,-4.05935 0.21415,-6.58396 1.20286,-9.22202 -0.59213,-0.6787 -1.85915,-4.5122 -2.60621,-6.31505 43.25778,-25.54165 75.16452,-66.3143 90.14847,-113.40397 2.02337,0.31803 5.54014,0.94024 6.68259,1.16947 2.35176,-1.55111 4.51414,-3.57495 8.75423,-3.24105 8.34878,1.20752 16.91812,4.30866 27.26505,8.01914 4.80957,1.84231 8.68377,3.98082 14.03351,5.41289 1.1307,0.30271 2.75045,0.58509 4.04302,0.86875 0.10365,0.0255 0.19598,0.0762 0.30065,0.10021 0.0694,0.0159 0.1671,0.018 0.23396,0.0332 9.27257,1.99616 18.27701,-3.07798 20.18148,-11.42727 1.90397,-8.34734 -4.01414,-16.82096 -13.23156,-19.04544 -1.34082,-0.30487 -3.24219,-0.82264 -4.54416,-1.06924 -5.44149,-1.03049 -9.86997,-0.77635 -15.00255,-1.20286 -10.93231,-1.14554 -19.98741,-2.07716 -28.0335,-4.61101 -3.28067,-1.27266 -5.61457,-5.17635 -6.74955,-6.78285 l -6.31502,-1.83772 c 3.27416,-23.6879 2.39132,-48.34078 -3.27446,-73.00756 -5.71862,-24.89642 -15.82487,-47.66664 -29.30333,-67.72828 1.61997,-1.47262 4.6791,-4.1816 5.54657,-4.97854 0.25362,-2.80582 0.0353,-5.74762 2.94036,-8.85445 6.14941,-5.77452 13.90336,-10.56281 23.25549,-16.33901 4.43907,-2.61159 8.54252,-4.29502 12.99773,-7.58474 1.00743,-0.74395 2.38318,-1.92204 3.44149,-2.77329 7.50098,-5.98371 9.22801,-16.30391 3.84255,-23.05504 -5.38553,-6.75113 -15.82142,-7.38703 -23.32232,-1.40333 -1.06772,0.84559 -2.5165,1.94866 -3.47495,2.77327 -4.19828,3.61177 -6.79114,7.17917 -10.32468,10.92609 -7.71174,7.83304 -14.08601,14.36788 -21.0836,19.07885 -3.0324,1.76534 -7.47385,1.15451 -9.48941,1.03579 l -5.94754,4.24346 C 394.11995,118.91464 347.9448,96.177834 298.22477,91.761069 c -0.13913,-2.083602 -0.3213,-5.849884 -0.3676,-6.983331 -2.03548,-1.947739 -4.49436,-3.610607 -5.11216,-7.818667 -0.68023,-8.408221 0.45539,-17.454547 1.77086,-28.367699 0.72609,-5.098835 1.93249,-9.33453 2.13843,-14.868802 0.0471,-1.258069 -0.0277,-3.083636 -0.0331,-4.443941 0,-9.595261 -7.00123,-17.375664 -15.63731,-17.37479 z m -19.58004,121.28942 -4.64449,82.0291 -0.33412,0.16709 c -0.31147,7.33841 -6.35116,13.19815 -13.7662,13.19815 -3.03743,0 -5.84101,-0.97542 -8.1193,-2.63964 l -0.13361,0.0669 -67.26056,-47.68045 c 20.67188,-20.32707 47.11287,-35.34876 77.58513,-42.26752 5.56638,-1.26386 11.13027,-2.20162 16.6732,-2.87354 z m 39.19347,0 c 35.57663,4.37559 68.47807,20.48498 93.69025,45.17447 l -66.82615,47.37974 -0.23383,-0.10011 c -5.9315,4.33213 -14.28851,3.25725 -18.91181,-2.5394 -1.89401,-2.37469 -2.88774,-5.16687 -3.00717,-7.98572 l -0.0662,-0.0332 z m -157.84333,75.78083 61.4132,54.93109 -0.0669,0.33414 c 5.54325,4.81895 6.36066,13.18127 1.7375,18.97862 -1.89382,2.37479 -4.4288,3.96758 -7.15041,4.71125 l -0.0669,0.26729 -78.72119,22.7209 c -4.00665,-36.63694 4.62817,-72.25097 22.85455,-101.94329 z m 276.0254,0.0332 c 9.1248,14.79003 16.03453,31.30901 20.14803,49.21746 4.06419,17.69372 5.08411,35.35579 3.40811,52.42509 l -79.12213,-22.78772 -0.0663,-0.33413 c -7.08518,-1.93639 -11.43946,-9.14355 -9.78997,-16.37238 0.67575,-2.96134 2.24771,-5.46654 4.37703,-7.31747 l -0.0331,-0.16709 61.07909,-54.66377 z m -150.39226,59.14113 h 25.16008 l 15.63731,19.54665 -5.6134,24.39151 -22.58723,10.85928 -22.65406,-10.89268 -5.61339,-24.39152 z m 80.65914,66.89298 c 1.06922,-0.0539 2.13373,0.0424 3.17428,0.23386 l 0.13361,-0.1671 81.42761,13.76619 c -11.91697,33.48053 -34.7205,62.48531 -65.18884,81.89542 l -31.60876,-76.34885 0.10062,-0.13362 c -2.90368,-6.74674 0,-14.6585 6.68262,-17.87599 1.7103,-0.82375 3.4972,-1.27985 5.27926,-1.36991 z m -136.75969,0.33412 c 6.21402,0.0872 11.78776,4.40009 13.23163,10.7256 0.67584,2.96126 0.34695,5.89538 -0.76855,8.48689 l 0.23394,0.30073 -31.27469,75.58037 c -29.24009,-18.76319 -52.5299,-46.85733 -64.98841,-81.32725 l 80.72597,-13.69936 0.13361,0.1671 c 0.90298,-0.16621 1.81874,-0.24634 2.70648,-0.23388 z m 68.19607,33.1124 c 2.16462,-0.0795 4.36102,0.36458 6.44878,1.36993 2.73665,1.31784 4.85072,3.39283 6.18136,5.8807 h 0.30076 l 39.79491,71.90491 c -5.16463,1.73132 -10.47416,3.21096 -15.90462,4.44397 -30.43474,6.91023 -60.77285,4.81645 -88.24385,-4.54421 l 39.69472,-71.77125 h 0.0663 c 2.3818,-4.45266 6.89902,-7.10911 11.66111,-7.28405 z"
     style="color:#000000;font-style:normal;font-variant:normal;font-weight:normal;font-stretch:normal;font-size:medium;line-height:normal;font-family:Sans;-inkscape-font-specification:Sans;text-indent:0;text-align:start;text-decoration:none;text-decoration-line:none;letter-spacing:normal;word-spacing:normal;text-transform:none;writing-mode:lr-tb;direction:ltr;baseline-shift:baseline;text-anchor:start;display:inline;overflow:visible;visibility:visible;fill:#326ce5;fill-opacity:1;stroke:#ffffff;stroke-width:0.26730451;stroke-miterlimit:4;stroke-dasharray:none;stroke-opacity:1;marker:none;enable-background:accumulate"
     sodipodi:nodetypes="ccccccccsccccscssccsccccccccscccsccccccccccccccscccscsccsccccscscsccccccccscccscsccccsccccscscscccccccccccccccscccsccccccccccccscccccscccccccccccccccccccccccscccscccccccccscccscccc"
     inkscape:export-filename="./path3059.png"
     inkscape:export-xdpi="250.55"
     inkscape:export-ydpi="250.55" />
  <path
     sodipodi:type="inkscape:offset"
     inkscape:radius="-8.012866"
     inkscape:original="M 278.38086 156.39453 C 193.30221 156.39453 118.97808 205.97535 81.466797 279.17773 C 78.256004 285.52904 78.256004 293.02955 81.466797 299.38086 C 118.99885 372.61092 193.30221 422.15625 278.38086 422.15625 C 363.45951 422.15625 437.78168 372.57544 475.29297 299.37305 C 478.50376 293.02174 478.50376 285.52318 475.29297 279.17188 C 437.76092 205.94181 363.45951 156.39453 278.38086 156.39453 z "
     style="fill:#ffffff;fill-opacity:1;stroke-width:0.69209021"
     id="path4677"
     d="m 278.38086,164.4082 c -81.95471,0 -153.54109,47.72575 -189.767579,118.39649 -2.057312,4.07835 -2.057312,8.87087 0,12.94922 36.247829,70.69999 107.810639,118.38867 189.767579,118.38867 81.9547,0 153.53908,-47.72564 189.76562,-118.39649 2.05761,-4.07893 2.05761,-8.86834 0,-12.94726 C 431.89858,212.09867 360.33767,164.4082 278.38086,164.4082 Z" />
  <path
     inkscape:connector-curvature="0"
     style="fill:#326ce5;stroke-width:0.69209021;fill-opacity:1"
     d="m 278.38011,211.76155 a 76.780488,76.780488 0 0 0 -21.6209,3.46045 38.341798,38.341798 0 0 1 5.01074,18.68643 38.757052,38.757052 0 0 1 -38.75705,38.75705 38.341798,38.341798 0 0 1 -18.68645,-5.01073 77.313397,77.313397 0 1 0 74.05366,-55.8932 z m 196.91351,67.40959 C 437.76157,205.94107 363.45876,156.39433 278.38011,156.39433 c -85.07865,0 -159.40222,49.58135 -196.9135,122.78373 a 22.389118,22.389118 0 0 0 0,20.20211 c 37.53205,73.23006 111.83485,122.7768 196.9135,122.7768 85.07865,0 159.40222,-49.58134 196.91351,-122.78373 a 22.389118,22.389118 0 0 0 0,-20.2021 z m -196.91351,109.7655 c -68.2747,0 -130.86734,-38.06497 -164.66902,-99.66099 33.80168,-61.59603 96.3874,-99.66099 164.66902,-99.66099 68.28162,0 130.86734,38.06496 164.66902,99.66099 -33.79476,61.59602 -96.3874,99.66099 -164.66902,99.66099 z"
     id="path4652" />
</svg>
